<svg width="77.28" height="14.32" viewBox="0 0 77.28 14.32">
  <path id="Path_17" data-name="Path 17" d="M4.256-5.664,3.632-4.272H5.856L5.792-5.648q-.048-.768-.08-1.528T5.648-8.752H5.584q-.336.768-.656,1.536T4.256-5.664ZM-.688,0l5.36-10.432H7.28L8.368,0h-2.3L5.936-2.624H2.9L1.728,0ZM14.368.192A4.888,4.888,0,0,1,12.9-.024a3.516,3.516,0,0,1-1.208-.648,3.067,3.067,0,0,1-.824-1.088,3.58,3.58,0,0,1-.3-1.52,4.9,4.9,0,0,1,.392-1.984,4.6,4.6,0,0,1,1.064-1.528,4.9,4.9,0,0,1,1.552-.984,4.909,4.909,0,0,1,1.84-.352,3.95,3.95,0,0,1,.992.12,4,4,0,0,1,.848.32,3.532,3.532,0,0,1,.688.464,4.524,4.524,0,0,1,.528.536L17.136-5.472a2.429,2.429,0,0,0-1.888-.864,2.029,2.029,0,0,0-.9.216,2.662,2.662,0,0,0-.792.6,2.937,2.937,0,0,0-.56.9,3.009,3.009,0,0,0-.208,1.128,2.147,2.147,0,0,0,.152.84,1.651,1.651,0,0,0,.408.592,1.627,1.627,0,0,0,.608.344,2.413,2.413,0,0,0,.736.112,2.2,2.2,0,0,0,1.064-.256,5.844,5.844,0,0,0,.936-.64l.768,1.488a4.4,4.4,0,0,1-1.376.88A4.488,4.488,0,0,1,14.368.192ZM19.456,0,21.7-11.216h2.192l-.672,3.3-.368,1.3h.064A5.9,5.9,0,0,1,24.28-7.7a3.148,3.148,0,0,1,1.576-.432,2.071,2.071,0,0,1,1.528.52A2.048,2.048,0,0,1,27.9-6.1a6.136,6.136,0,0,1-.128,1.2L26.8,0H24.608l.928-4.64q.048-.24.08-.44a2.386,2.386,0,0,0,.032-.376.714.714,0,0,0-.816-.8,2.143,2.143,0,0,0-1.1.352,4.421,4.421,0,0,0-1.144,1.056L21.648,0Zm12.5.192a2.4,2.4,0,0,1-1.9-.792,3.35,3.35,0,0,1-.7-2.28A5.958,5.958,0,0,1,29.7-4.92a5.5,5.5,0,0,1,.936-1.664A4.63,4.63,0,0,1,32-7.712a3.346,3.346,0,0,1,1.616-.416,2.977,2.977,0,0,1,1.344.28,2,2,0,0,1,.848.76h.064l.336-.848h1.76L36.368,0H34.592l.032-1.088H34.56a4.2,4.2,0,0,1-1.248.944A3.081,3.081,0,0,1,31.952.192ZM32.768-1.6a2.085,2.085,0,0,0,.992-.288,3.09,3.09,0,0,0,.992-.928l.576-2.768a1.32,1.32,0,0,0-.608-.576A1.735,1.735,0,0,0,34-6.336a1.851,1.851,0,0,0-.912.24,2.444,2.444,0,0,0-.76.672,3.443,3.443,0,0,0-.52,1.016,4,4,0,0,0-.192,1.256,1.819,1.819,0,0,0,.312,1.184A1.045,1.045,0,0,0,32.768-1.6Zm6.8,1.6,1.568-7.952,1.776.016-.224,2.112h.064a5.407,5.407,0,0,1,1.5-1.68,3.035,3.035,0,0,1,1.784-.624,2.9,2.9,0,0,1,1.568.336L46.816-5.9A2.618,2.618,0,0,0,45.6-6.176a2.481,2.481,0,0,0-1.616.712,7.392,7.392,0,0,0-1.52,1.96L41.76,0ZM48.7,3.1a3.071,3.071,0,0,1-.832-.112,2.259,2.259,0,0,1-.64-.272l.608-1.488a2.4,2.4,0,0,0,.472.168,2.1,2.1,0,0,0,.52.072A2.08,2.08,0,0,0,49.9,1.224,2.146,2.146,0,0,0,50.64.432l.288-.464-1.808-7.9h2.112l.656,3.456q.048.288.1.616t.1.664q.048.336.088.648t.072.568H52.3q.112-.256.272-.568T52.9-3.2q.168-.336.336-.664t.312-.616L55.44-7.936h2.224L52.912.224a6.8,6.8,0,0,1-1.848,2.184A3.981,3.981,0,0,1,48.7,3.1ZM60.752.192a2.4,2.4,0,0,1-1.9-.792,3.35,3.35,0,0,1-.7-2.28A5.958,5.958,0,0,1,58.5-4.92a5.5,5.5,0,0,1,.936-1.664A4.63,4.63,0,0,1,60.8-7.712a3.346,3.346,0,0,1,1.616-.416,2.977,2.977,0,0,1,1.344.28,2,2,0,0,1,.848.76h.064l.336-.848h1.76L65.168,0H63.392l.032-1.088H63.36a4.2,4.2,0,0,1-1.248.944A3.081,3.081,0,0,1,60.752.192ZM61.568-1.6a2.085,2.085,0,0,0,.992-.288,3.09,3.09,0,0,0,.992-.928l.576-2.768a1.32,1.32,0,0,0-.608-.576,1.735,1.735,0,0,0-.72-.176,1.851,1.851,0,0,0-.912.24,2.444,2.444,0,0,0-.76.672,3.443,3.443,0,0,0-.52,1.016,4,4,0,0,0-.192,1.256,1.819,1.819,0,0,0,.312,1.184A1.045,1.045,0,0,0,61.568-1.6ZM66.88,0l1.568-7.936h1.568l-.032,1.024h.064a3.765,3.765,0,0,1,.888-.856,2.1,2.1,0,0,1,1.224-.36q.992,0,1.1,1.152a2.513,2.513,0,0,1,2.08-1.152,1.187,1.187,0,0,1,.912.36A1.507,1.507,0,0,1,76.592-6.7a3.035,3.035,0,0,1-.024.392q-.024.184-.072.424L75.3,0H73.264l1.12-5.472a2.046,2.046,0,0,0,.04-.224q.008-.08.008-.16,0-.416-.336-.416a.741.741,0,0,0-.5.208,3.2,3.2,0,0,0-.5.624L71.984,0h-1.76L71.36-5.472a1.109,1.109,0,0,0,.032-.224v-.16q0-.416-.352-.416a.869.869,0,0,0-.544.2,2.4,2.4,0,0,0-.528.648L68.928,0Z" transform="translate(0.688 11.216)" fill="#f25c54"/>
</svg>
